<?xml version="1.0" encoding="utf-8"?>
<!-- Generator: Adobe Illustrator 15.0.0, SVG Export Plug-In . SVG Version: 6.00 Build 0)  -->
<!DOCTYPE svg PUBLIC "-//W3C//DTD SVG 1.1//EN" "http://www.w3.org/Graphics/SVG/1.1/DTD/svg11.dtd">
<svg version="1.1" id="Layer_1" xmlns="http://www.w3.org/2000/svg" xmlns:xlink="http://www.w3.org/1999/xlink" x="0px" y="0px"
	 width="192px" height="192px" viewBox="84 84 192 192" enable-background="new 84 84 192 192" xml:space="preserve">
<g>
	<g>
		<g>
			<path fill="#939598" d="M181.574,106.048c0.211,0,0.419,0,0.628,0c10.966,4.934,21.998,10,32.328,15.642
				c10.362,5.66,19.353,12.619,26.593,21.38c6.802,8.228,14.069,19.561,11.472,35.248c-2.236,13.507-9.866,21.941-18.251,29.721
				c0,4.348,0,10.784,0,15.13c5.407,0.089,10.244-0.299,11.265,3.964c0.501,2.101-0.797,7.789,0.729,9.177
				c1.313,1.192,3.876-0.035,5.631,0.418c0,9.733,0,19.466,0,29.199c7.197,0.241,14.844,0.035,22.214,0.106
				c0.109,2.508,0.306,6.003-0.103,8.342c-9.908,0-19.817,0-29.723,0c-0.242-9.701-0.036-19.85-0.104-29.725
				c-1.99-0.141-3.573-0.061-4.589-0.937c-2.628-2.267-1.167-7.805-1.875-11.993c-2.342-1.552-7.24-0.544-10.849-0.836
				c0-7.174,0-16.278,0-23.783c0-1.022-0.215-2.322,0-3.024c0.199-0.64,2.356-2.021,2.92-2.503c2.975-2.53,5.732-5.247,8.032-8.238
				c4.316-5.619,8.892-13.66,8.029-24.195c-0.25-3.059-1.31-5.971-2.399-8.446c-2.201-5.005-5.315-9.311-8.447-13.141
				c-6.572-8.039-14.42-14.341-23.673-19.606c-9.133-5.197-19.466-8.752-29.407-13.764c-20.313,8.109-40.341,17.365-53.186,33.266
				c-5.94,7.353-13.179,17.668-10.116,31.391c2.595,11.631,10.268,18.275,18.041,25.132c0,8.275,0,18.641,0,26.914
				c-1.721,0-3.453,0-5.423,0c-1.72,0-4.301-0.262-5.006,0.73c-0.779,1.097-0.416,3.766-0.416,5.84c0,4.513-0.7,8.072-6.466,7.092
				c-0.069,9.907,0.139,20.092-0.104,29.826c-11.159,0-22.318,0-33.476,0c0-2.783,0-5.563,0-8.342c8.656,0,17.312,0,25.967,0
				c0.07-9.735-0.139-19.747,0.105-29.306c1.736-0.451,4.324,0.771,5.632-0.418c0.709-0.645,0.521-2.807,0.521-4.172
				c0-1.692-0.097-3.479,0.208-4.588c1.171-4.252,5.359-4.477,11.055-4.381c0-2.17,0-4.247,0-6.465c0-2.044,0.455-6.669,0-8.56
				c-0.234-0.975-2.168-2.271-2.92-3.022c-6.988-6.988-12.879-15.345-15.123-26.804c-3.037-15.508,4.663-27.318,11.263-35.248
				C137.33,125.307,159.132,116.053,181.574,106.048z"/>
		</g>
	</g>
	
		<linearGradient id="SVGID_1_" gradientUnits="userSpaceOnUse" x1="240.2529" y1="-117.1074" x2="373.8477" y2="-117.1074" gradientTransform="matrix(1 0 0 -1 -126 145)">
		<stop  offset="0" style="stop-color:#122C9B"/>
		<stop  offset="0.5" style="stop-color:#0075A1"/>
		<stop  offset="1" style="stop-color:#122C9B"/>
	</linearGradient>
	<rect x="114.253" y="248.124" fill="url(#SVGID_1_)" width="133.595" height="27.967"/>
	
		<linearGradient id="SVGID_2_" gradientUnits="userSpaceOnUse" x1="306.083" y1="-131.0908" x2="306.0829" y2="62.375" gradientTransform="matrix(1 0 0 -1 -126 145)">
		<stop  offset="0" style="stop-color:#122C9B"/>
		<stop  offset="0.5" style="stop-color:#0075A1"/>
		<stop  offset="1" style="stop-color:#122C9B"/>
	</linearGradient>
	<path fill="url(#SVGID_2_)" d="M276.248,82.625H83.917v184.953c0,2.094,0,4.185,0,6.277c0,0.744,0,1.49,0,2.235
		c11.386,0,22.772,0,34.159,0c0.248-9.934,0.035-20.324,0.106-30.435c5.885,1,6.598-2.633,6.598-7.236
		c0-2.117-0.37-4.84,0.425-5.958c0.719-1.013,3.354-0.746,5.109-0.746c2.01,0,3.777,0,5.533,0c0-8.443,0-19.021,0-27.464
		c-7.932-6.996-15.761-13.776-18.409-25.646c-3.126-14.001,4.26-24.528,10.322-32.03c13.107-16.227,33.545-25.672,54.271-33.945
		c10.145,5.113,20.688,8.742,30.008,14.045c9.441,5.373,17.45,11.804,24.156,20.007c3.196,3.908,6.374,8.302,8.62,13.408
		c1.112,2.526,2.193,5.499,2.448,8.62c0.877,10.749-3.79,18.951-8.196,24.688c-2.345,3.055-5.156,5.826-8.193,8.408
		c-0.574,0.49-2.776,1.899-2.979,2.554c-0.222,0.715,0,2.042,0,3.085c0,7.659,0,16.95,0,24.271
		c3.679,0.296,8.679-0.732,11.067,0.851c0.724,4.274-0.768,9.926,1.916,12.238c1.035,0.895,2.648,0.814,4.682,0.958
		c0.07,10.074-0.142,20.431,0.107,30.328c10.107,0,20.218,0,30.327,0c0.358-2.049,0.261-4.964,0.157-7.37L276.248,82.625z"/>
	<g opacity="0.5">
		<path fill="#939598" d="M181.403,230.929l37.79-23.335c0,0-23.431-2.008-37.79,16.788l0,0
			c-14.361-18.796-37.792-16.788-37.792-16.788L181.403,230.929L181.403,230.929z"/>
		<path fill="#939598" d="M218.213,208.198c0,0-22.951-1.522-36.81,16.616l0,0c-13.859-18.139-37.088-16.788-37.088-16.788
			l37.088,23.106"/>
		<polygon fill="#939598" points="181.403,237.756 218.56,213.681 213.633,213.681 181.403,233.602 149.174,213.681 
			144.245,213.681 		"/>
		<polygon fill="#939598" points="181.403,238.211 218.071,214.113 213.633,214.137 181.403,234.059 149.174,214.137 
			144.778,214.137 		"/>
		<polygon fill="#939598" points="184.964,237.513 191.742,243.209 189.965,244.795 183.083,239.182 		"/>
		<polygon fill="#939598" points="184.964,237.858 191.646,243.476 189.965,244.974 183.182,239.44 		"/>
		<polygon fill="#939598" points="178.319,237.513 171.54,243.209 173.317,244.795 180.198,239.182 		"/>
		<polygon fill="#939598" points="178.311,237.858 171.614,243.454 173.318,244.974 180.123,239.422 		"/>
	</g>
	<g>
		<path fill="#122C9B" d="M173.256,121.117c0.118,0,0.235,0,0.353,0c-0.906,2.551-3.859,3.015-6.37,4.012
			c-4.928,1.954-10.278,4.165-14.867,5.781c0.568-1.641,1.821-2.089,3.421-2.833c5.261-2.443,12.547-4.642,17.462-6.843
			C173.256,121.195,173.256,121.157,173.256,121.117z"/>
		<path fill="#122C9B" d="M175.89,226.237c-1.446,0.01-3.132,0.254-5.782-1.77c-2.349-1.793-3.092-4.76-3.775-8.26
			c-6.063,0.982-12.426,0.957-15.928-2.005c-3.354-2.837-4.085-7.464-4.248-13.45c-2.455,1.334-3.952,4.188-7.787,2.949
			c-3.958-1.276-6.104-6.09-5.427-10.854c0.453-3.187,1.899-5.93,2.832-8.494c-1.859-1.062-3.766-1.901-5.073-3.541
			c-0.8-1.002-1.012-2.258-1.653-3.54c0-1.417,0-2.832,0-4.247c0.559-0.525,0.482-1.777,0.827-2.832
			c0.589-1.801,1.381-3.265,2.242-4.838c0.428-0.782,1.257-1.722,1.298-2.359c0.033-0.53-0.379-1.204-0.472-1.652
			c-0.989-4.788,1.966-8.498,3.894-11.208c0.61-0.856,1.765-1.896,1.888-2.714c0.092-0.624-0.24-1.422-0.237-2.005
			c0.01-1.724,0.463-4.367,1.298-5.428c0.285-0.36,1.557-1.009,2.478-1.534c11.303-6.431,24.764-11.389,38.463-14.984
			c2.43-0.639,4.804-1.479,6.725-1.535c5.991-0.172,3.845,5.789,2.127,8.731c-2.541,4.341-5.846,7.305-8.732,10.737
			c-0.572,0.679-0.988,1.776-1.771,1.888c1.636-4.694,4.922-7.651,8.024-11.091c0.935-1.039,2.554-2.277,2.36-4.011
			c-0.339-3.022-5.988-1.805-8.496-1.298c-2.44,0.492-4.511,1.123-6.371,1.77c-10.356,3.602-20.32,6.866-29.142,11.444
			c-1.817,0.942-3.684,1.825-5.074,3.067c6.455,4.702,13.737,9.693,20.53,14.395c0.804,0.557,2.33,1.969,3.067,2.006
			c0.721,0.038,1.807-0.829,2.479-1.061c2.394-0.829,5.033-1.03,7.787-1.063c-0.304-2.827-1.454-5.569-2.241-8.495
			c-0.765-2.843-1.639-6.327-1.18-9.557c0.141-0.993,0.582-2.254,1.416-2.832c1.223,2.356,2.398,4.759,3.539,7.198
			c-0.744,0.199-1.308-0.929-1.769-0.236c0.45,5.827,1.783,10.715,5.072,14.039c1.048,1.06,3.434,2.059,3.894,3.304
			c0.512,1.385,0.097,3.299-0.234,4.484c-2.866-2.829-9.142-5.056-13.923-2.831c1.558,1.853,3.612,3.082,5.427,4.602
			c3.702,3.096,7.239,6.216,10.855,9.321c1.82,1.561,3.508,3.542,6.018,4.129c-0.614-10.14-2.676-21.779-3.659-32.564
			c-0.255-2.797-1.11-5.393,0.592-6.844c1.912,2.884,3.748,5.849,4.483,9.913c-0.801,0.218-1.24-1.483-2.124-1.181
			c0.962,10.249,2.652,20.788,3.775,31.266c2.553,0.97,7.371-0.893,7.785-2.949c0.14-0.681-0.196-2.067-0.352-3.304
			c-0.451-3.563-0.708-6.958-1.181-10.146c-1.573-10.633-2.705-22.183-4.485-32.447c-0.643-3.712-1.599-7.167,0.119-9.675
			c1.802,2.998,4.033,6.193,4.603,10.029c-0.936-0.286-1.172-1.267-2.241-1.415c0.681,10.616,2.579,22.053,4.01,32.683
			c0.493,3.659,1.316,7.34,1.534,10.854c0.461,7.414-3.899,9.426-8.967,11.444c0.484,5.459,0.41,12.03-1.652,15.691
			c0.072-5.813-0.399-11.084-1.181-16.047c-9.332-3.88-13.737-12.689-22.298-17.342c0.21,0.882,1.025,1.491,1.534,2.125
			c1.717,2.133,3.662,4.61,4.012,8.021c0.42,4.108-1.109,6.19-3.304,7.671c-5.187,3.498-14.36,4.785-19.821,8.375
			c-1.721,1.133-4.295,3.242-4.72,4.721c-0.605,2.105,0.148,4.781,0.827,6.608c2.288,6.154,11.09,8.414,18.287,5.425
			c0.412-1.188,0.944-2.494,1.534-4.013c0.343-0.877,1.644-3.249,1.534-4.011c-0.184-1.279-2.218-1.353-2.478-2.832
			c0.48-1.131,1.089-2.135,2.124-2.712c0.653-0.116,0.669,0.536,1.18,0.236c2.173-1.995,4.472-3.865,5.899-6.607
			c-0.513-0.654-1.296-0.916-1.417-2.007c-0.179-1.645,0.862-3.881,2.243-3.775c1.813,0.14,1.729,3.174,1.299,5.073
			c0.368,0.688,1.446,1.54,0.708,2.597c-1.014,0.108-0.771-1.038-1.652-1.063c-2.027,2.298-4.323,4.329-6.489,6.489
			c0.609,0.849,1.841,1.253,1.888,2.36c0.052,1.206-1.859,2.687-2.595,3.894c-1.165,1.906-1.645,3.693-1.652,5.662
			c5.123-1.921,9.838-4.412,13.923-7.551c0.846-0.649,3.538-2.464,3.658-3.54c0.091-0.821-0.974-2.627-1.416-3.658
			c-0.591-1.367-1.01-2.46-1.533-3.538c-1.503-3.095-4.686-7.148-1.89-10.383c1.02,0.788,1.828,1.917,2.714,2.949
			c0.878,1.02,2.149,1.959,2.479,3.068c-0.903,0.504-1.458-0.86-2.361-0.356c0.833,4.232,4.2,6.466,3.659,11.563
			c-0.521,4.88-4.849,7.893-8.496,10.267c-3.715,2.416-7.958,4.207-11.445,5.779c-0.289,3.298,0.871,7.73,4.248,8.023
			c2.124,0.187,3.922-1.309,5.073-2.24c4.17-3.381,6.779-7.859,10.501-11.446c3.505-3.374,8.915-5.697,14.038-7.903
			c1.036-0.445,4.585-1.486,4.838-2.596c0.124-0.538-0.419-1.902-0.588-2.832c-0.843-4.611-0.393-10.602,3.067-11.799
			c1.768-0.612,3.469,0.304,4.248,1.298c2.584,3.313,2.372,9.025,0.234,12.508c-0.836,1.364-2.224,2.228-2.95,3.421
			c1.134,2.146,4.128,3.789,7.67,3.067c1.768-0.361,4.847-1.854,5.191-3.185c0.229-0.898-0.206-2.678-0.354-4.133
			c-0.412-4.055-0.995-8.724-1.415-12.27c-1.662-13.967-3.248-26.829-4.956-40.468c-0.437-3.5-2.032-8.61,0.234-10.737
			c1.91,2.849,3.738,6.408,4.25,10.265c-0.883-0.036-1.193-1.856-1.89-1.297c0.806,11.473,2.672,27.546,4.248,39.76
			c0.578,4.477,1.344,8.795,1.652,13.098c0.54,7.541-2.396,12.375-8.495,12.978c-5.567,0.55-6.531-2.847-8.731-5.662
			c-6.555,2.61-13.472,4.757-18.405,9.085C184.805,216.707,178.409,226.02,175.89,226.237z M139.433,148.603
			c-1.1,1.427-3.76,4.487-4.13,7.199c-0.22,1.606,0,4.065,1.18,4.129c1.207,0.064,1.299-2.053,2.596-1.771
			c-0.765,3.248-3.04,4.984-5.31,6.727c-1.012,3.085-3.304,6.059-3.304,10.146c0,3.5,2.313,7.162,6.489,5.664
			c1.936-0.694,4.108-2.378,5.9-3.776c5.245-4.096,11.21-10.007,15.338-14.04C152.049,158.011,145.821,153.228,139.433,148.603z
			 M137.308,184.354c-1.453,3.323-3.558,7.175-3.067,11.563c0.367,3.288,2.913,6.299,6.488,4.717
			c2.674-1.18,4.369-4.171,6.961-6.369c2.38-2.018,5.021-3.635,8.377-5.073c5.055-2.168,11.688-4.07,16.282-7.079
			c0.487-0.318,1.793-1.047,1.887-1.534c0.194-0.99-1.585-3.634-2.241-4.602c-2.09-3.081-4.042-4.862-6.608-7.079
			c-1.102-0.953-2.985-2.542-4.011-2.951C152.571,171.299,147.522,180.409,137.308,184.354z M177.66,189.545
			c0.112-0.861-0.264-1.23-0.59-1.653C175.361,187.765,176.822,190.09,177.66,189.545z M213.764,194.735
			c0.594-2.606-1.876-6.237-3.659-6.37c-4.49-0.337-2.702,8.082-0.706,9.674C210.893,197.011,213.347,196.557,213.764,194.735z"/>
		<path fill="#122C9B" d="M211.403,136.45c-1.139-0.12-1.197-1.319-2.241-1.533c0.792,6.917,1.982,14.457,3.067,21.474
			c0.936-0.284,1.118-1.319,1.65-2.007c-0.185-1.029-1.55-1.722-1.533-3.066c0.031-2.267,3.206-3.46,3.774-0.825
			c0.416,1.919-0.852,3.735-0.589,5.191c-0.263,0.272-0.459-0.042-0.827,0c-0.315,0.918-2.229,1.908-2.477,3.067
			c-0.125,0.594,0.286,1.237,0.353,1.886c0.42,4.041,0.418,9.467-0.944,12.625c-0.632-0.678-0.313-2.073-0.353-2.949
			c-0.148-3.382-0.528-6.826-1.533-9.44c-1.614,1.024-2.848,2.424-4.839,3.07c1.301-1.77,3.215-2.922,4.602-4.602
			c-0.643-7.939-1.802-16.111-3.067-23.716c-0.594-3.569-1.811-6.971,0.119-9.674c0.1-0.022,0.11,0.045,0.117,0.118
			C208.748,129.035,210.429,132.392,211.403,136.45z M213.645,151.318c-0.099,0.605,0.566,1.087,1.18,1.298
			C215.762,151.394,213.856,150.023,213.645,151.318z"/>
		<path fill="#122C9B" d="M177.541,131.379c0.19-0.034,0.203,0.111,0.354,0.118c-0.266,1.615-1.061,4.274,0.472,5.072
			c0.745,0.117,0.469-0.789,1.179-0.708c0.267,1.043-0.382,2.506-1.297,2.478C176.341,138.28,176.687,132.958,177.541,131.379z"/>
		<path fill="#122C9B" d="M190.166,138.576c-0.36-1.703,0.101-3.484,0.472-4.837c1.529-0.413,2.809,0.243,3.421,1.179
			C195.621,137.303,192.2,140.925,190.166,138.576z M193.586,136.569c-0.021-0.49-1.424-1.613-2.122-1.415
			c-0.849,0.239-0.506,0.999-0.709,2.241C191.525,138.381,193.634,137.603,193.586,136.569z"/>
		<path fill="#122C9B" d="M161.377,136.334c0.137-0.02,0.21,0.025,0.236,0.116c-0.052,1.925-1.557,5.234,0.235,6.725
			c0.679,0.129,0.559-0.541,1.299-0.353c0.021,1.253-0.501,2.062-1.417,2.124C158.572,145.156,160.45,137.696,161.377,136.334z"/>
		<path fill="#122C9B" d="M151.939,138.812c0.19-0.033,0.203,0.11,0.354,0.117c-0.291,2.283-1.649,5.34,0.236,6.844
			c0.484-0.004,0.818-0.599,1.18-0.354c0.115,0.994-0.479,2.455-2.007,2.005C149.322,146.725,151.33,139.967,151.939,138.812z"/>
		<path fill="#122C9B" d="M202.907,140.109c0.1,1.825-0.657,5.008,1.063,5.781c0.808,0.181,0.596-1.165,1.179-0.825
			c0.371,1.238-0.217,2.677-1.179,2.712C201.568,147.866,201.79,141.938,202.907,140.109z"/>
		<path fill="#122C9B" d="M231.107,154.621c-1.018-0.202-1.118-1.322-2.242-1.416c0.557,8.906,2.712,18.033,3.42,27.608
			c0.357,4.824,0.82,10.831-1.414,13.806c-0.451-12.566-2.466-24.312-4.013-35.985c-0.415-3.138-0.49-6.358-1.178-9.085
			c-0.136-0.528-0.436-0.897-0.473-1.416c-0.11-1.456,0.627-2.097,0.942-3.304c0.118,0,0.235,0,0.355,0
			C228.195,147.936,230.438,150.493,231.107,154.621z"/>
		<path fill="#122C9B" d="M168.103,148.014c-0.729-0.135-0.962-0.768-1.651-0.944c-2.068,1.275-0.227,6.459-1.652,8.377
			c-1.365-1.203-1.268-3.407-3.068-4.129c-0.68-0.272-1.388-0.011-1.888-0.473c-0.585-0.541-0.643-1.894-0.118-2.714
			c2.888-0.016,3.201,2.541,4.719,3.893c0.468-1.82,0.175-6.431,2.478-6.606C168.034,145.334,169.018,146.79,168.103,148.014z"/>
		<path fill="#122C9B" d="M186.152,149.548c-0.8,0.022-0.793-0.787-1.533-0.59c-1.346,0.358-0.226,5.503-0.589,6.844
			c-1.929-1.138-2.063-4.071-5.309-3.895c-0.49-0.452-1.118-1.349-0.589-2.123c2.204-0.148,3.368,1.733,4.718,2.831
			c0.569-1.415,0.635-5.752,2.714-5.192C186.093,147.567,186.626,148.765,186.152,149.548z"/>
		<path fill="#122C9B" d="M194.885,156.155c0.137-0.019,0.209,0.026,0.234,0.117c-0.405,2.223-1.059,5.707,1.063,6.491
			c0.615-0.019,0.429-1.455,0.944-1.18c1.212,1.288-0.09,4.367-1.888,2.949C193.487,163.151,193.725,157.957,194.885,156.155z"/>
		<path fill="#122C9B" d="M149.107,164.886c-0.842-0.219-0.956-1.168-1.77-1.417c-1.021,1.021-1.715,2.225-2.596,3.304
			c-2.548,3.131-5.913,5.711-9.438,8.024c3.458-4.054,7.922-7.101,10.736-11.8c-0.47-0.804-1.24-1.012-1.534-1.888
			c-0.848-2.522,1.594-5.38,3.421-3.186c0.221,1.489-0.359,2.359-0.118,3.422C148.096,162.618,150.064,163.33,149.107,164.886z
			 M145.567,159.576c0.172,0.693,0.688,1.042,1.417,1.18C147.733,159.819,146.21,158.407,145.567,159.576z"/>
		<path fill="#122C9B" d="M215.887,162.526c0.17,1.588-1.472,5.757,0.591,6.962c0.77,0.102,0.373-0.963,1.179-0.827
			c-0.101,1.306-0.267,2.717-1.299,2.831C213.539,171.801,214.877,163.818,215.887,162.526z"/>
		<path fill="#122C9B" d="M235.473,169.959c0,0.472,0,0.946,0,1.416c-0.578,0.169-0.683,0.813-1.534,0.708
			c-2.34-1.311-1.354-6.556-0.473-8.73c0.271,2.13-1.142,5.946,0.944,6.96C234.7,170.147,235.006,169.58,235.473,169.959z"/>
		<path fill="#122C9B" d="M185.093,165.594c0.138-0.019,0.21,0.025,0.235,0.117c-0.146,1.621-1.37,4.954,0.473,6.018
			c0.607-0.019,0.703-1.058,1.298-0.709c-0.091,1.202-0.561,2.447-1.534,2.479C182.856,173.587,184.132,167.084,185.093,165.594z"/>
		<path fill="#122C9B" d="M200.667,171.964c-0.136,1.469-2.165,2.272-3.422,2.95c-1.065,0.577-2.099,1.095-3.066,1.536
			c0.019-1.299,1.604-1.875,2.594-2.479c1.251-0.762,2.49-1.437,3.658-2.006C200.51,171.964,200.588,171.964,200.667,171.964z"/>
		<path fill="#122C9B" d="M211.756,176.33c1.196-0.536,1.254-2.207,2.479-2.713c1.47,0.967,2.598,2.277,3.656,3.657
			c-0.722,0.969-1.136,2.244-2.241,2.833c-1.419-0.704-2.259-1.99-3.538-2.833c-0.877,0.66-1.346,1.723-2.125,2.479
			c-1.948-0.334-2.698-1.867-3.893-2.95c0.457-1.193,1.278-2.024,1.769-3.186C209.583,174.101,210.307,175.579,211.756,176.33z"/>
		<path fill="#122C9B" d="M160.669,177.982c1.158-0.573,1.423-2.038,2.36-2.832c1.656,0.822,2.617,2.339,3.894,3.54
			c-0.636,1.094-1.1,2.361-2.241,2.951c-1.45-0.636-2.223-1.947-3.54-2.715c-1.027,0.546-1.338,1.808-2.242,2.479
			c-1.741-0.541-2.676-1.887-3.775-3.068c0.533-1.158,1.208-2.174,1.887-3.187C158.498,175.827,159.501,176.988,160.669,177.982z"/>
		<path fill="#122C9B" d="M153,183.291c-0.762-0.063-0.698-0.953-1.416-1.061c-1.159,1.71-0.447,5.293-1.416,7.197
			c-0.915-1.168-1.464-2.705-2.595-3.659c-1.978,0.997-3.339-2.188-1.651-3.304c1.848,0.709,2.67,2.441,3.893,3.776
			c0.667-0.524,0.336-1.847,0.472-2.95c0.111-0.901,0.417-2.423,1.063-2.712C152.503,180.056,154.337,182.084,153,183.291z"/>
		<path fill="#122C9B" d="M140.965,187.187c0.215,1.358-1.701,4.764,0,6.252c0.84,0.053,0.576-0.998,1.417-0.943
			c0.044,1.454-0.372,2.744-1.417,2.832C137.93,195.579,139.701,188.379,140.965,187.187z"/>
		<path fill="#122C9B" d="M200.784,192.378c-0.524,0.051-0.623-0.32-0.944-0.474c-0.509,0.295-0.996,0.287-1.061,0.826
			c-0.231,1.883,3.335,0.877,4.247,0.708c-0.038,1.496-1.869,1.762-3.187,2.595c-0.725,0.461-1.177,1.221-2.005,1.181
			c0.148-0.833,0.909-1.056,1.178-1.769c-0.151-1.156-1.274-1.138-1.296-2.243C197.685,191.56,201.624,189.292,200.784,192.378z"/>
		<path fill="#122C9B" d="M219.072,191.315c-0.189,1.76-1.431,5.512,0.591,6.606c0.806,0.14,0.282-1.055,1.06-0.944
			c0.04,1.13-0.385,2.746-1.65,2.715C216.442,199.626,218.121,192.67,219.072,191.315z"/>
		<path fill="#122C9B" d="M169.165,192.26c-0.955,2.586-5.292,3.696-7.905,4.837c-2.799,1.221-5.452,2.189-7.433,3.656
			c0.171,0.887,1.471,1.65,0.825,2.597c-0.859,0.247-1.384-0.802-1.887-1.299c-0.29-3.371,2.454-4.003,4.955-5.073
			c3.42-1.464,8.266-3.339,11.208-4.838C169.065,192.121,169.139,192.166,169.165,192.26z"/>
		<path fill="#122C9B" d="M176.834,201.462c-0.313-2.019-0.022-4.414,0.943-5.545c1.638,0.34,3.206,0.982,3.539,2.359
			C181.949,200.878,178.985,203.084,176.834,201.462z M177.896,197.566c-0.564,0.426-0.582,1.876-0.354,2.716
			c1.011,0.548,2.43-0.036,2.832-0.826C179.979,198.396,179.072,197.846,177.896,197.566z"/>
		<path fill="#122C9B" d="M164.209,203.35c-0.856-0.087-0.886-1.002-1.888-0.946c-0.462,2.079,0.528,5.561-0.708,7.316
			c-1.348-1.475-2.055-3.98-4.483-4.012c-0.393-0.518-0.325-1.967,0.118-2.359c2.166,0.272,2.651,2.226,3.893,3.421
			c0.725-1.83-0.175-5.288,1.534-6.136C163.895,200.811,165.161,202.087,164.209,203.35z"/>
		<path fill="#122C9B" d="M143.561,204.293c0.244,0.88-1.294,3.577,0.237,4.482c0.574,0.012,0.821-0.485,1.297-0.236
			c0.004,1.144-0.468,1.954-1.297,2.008C141.433,210.698,142.262,205.345,143.561,204.293z"/>
		<path fill="#122C9B" d="M210.459,209.838c0.12,0,0.236,0,0.354,0c-0.267,1.866-1.39,5.135,0.354,6.255
			c0.771-0.214,0.701-1.269,1.415-1.534c0.622,2.07-2.366,4.669-3.066,1.887C208.997,214.389,210.09,211.388,210.459,209.838z"/>
		<path fill="#122C9B" d="M205.622,215.619c-1.047,0.051-0.905-1.189-1.887-0.942c-1.499,0.371-0.008,6.569-1.534,7.314
			c-1.151-1.841-1.618-4.36-4.483-4.484c-0.776-0.506-1.235-2.532-0.354-3.304c2.753,0.395,3.286,3.005,4.719,4.72
			c0.769-1.699-0.004-5.601,1.889-6.018C205.135,212.649,206.823,214.418,205.622,215.619z"/>
		<path fill="#122C9B" d="M190.638,216.327c0.117,0,0.236,0,0.354,0c-0.142,1.97-1.455,5.098,0.354,6.254
			c0.905-0.076,0.613-1.354,1.535-1.415c-0.201,1.293-0.497,2.896-1.535,3.064c-2.725,0.454-1.466-5.926-0.826-7.549
			C190.582,216.586,190.643,216.49,190.638,216.327z"/>
		<path fill="#122C9B" d="M161.849,217.388c0.588,1.435-0.643,3.961,1.18,4.484c0.617,0.063,0.597-0.993,1.18-0.591
			c-0.128,1.137-0.436,2.214-1.297,2.364C160.42,224.063,160.772,218.919,161.849,217.388z"/>
	</g>
	<g>
		<path fill="#939598" d="M155.281,249.995c0.947,0.505,1.894,1.008,2.68,1.677c-0.035,1.281-0.636,1.995-1.071,2.881
			c-0.693-0.265-1.187-0.614-1.876-1.007c-0.131-0.074-0.763-0.54-0.803-0.536c-0.354,0.036-0.567,0.846-0.737,1.137
			c-0.271,0.473-0.566,0.699-0.67,1.142c-0.948-0.458-1.683-1.132-2.613-1.608c0.366-0.973,0.774-1.906,1.273-2.746
			c0.901,0.462,1.769,0.954,2.613,1.474C154.531,251.658,154.893,250.813,155.281,249.995z"/>
		<path fill="#939598" d="M167.504,248.127c0.023,0.161,0.047,0.608,0.071,0.759c0.204,1.284,0.392,3.089,0.604,4.287
			c0.13,2.889,0.696,6.538-0.401,8.774c-0.493,0.646-0.975,1.303-1.608,1.809c-1.208,0.736-3.556,0.464-5.091,0.068
			c-0.559-0.146-1.033-0.448-1.474-0.402c-0.487,0.049-1.343,0.697-1.809,0.871c-2.062,0.765-4.852,0.735-7.502,0.735
			c-2.647,0-5.185-0.188-7.034-1.138c-0.798,3.085-1.991,6.281-3.884,8.373c-0.5,0.553-1.563,1.498-2.345,1.609
			c-1.42,0.197-3.015-0.158-4.556-0.337c-1.468-0.171-2.949-0.371-4.019-0.87c4.276,0.221,7.207-0.917,9.714-3.081
			c1.525-1.319,3.154-3.105,3.55-5.023c0.278-1.351-0.509-2.363-1.072-3.417c-0.314-0.586-0.95-1.418-1.005-2.01
			c-0.094-1.013,0.563-2.265,0.737-3.349c1.462,1.148,2.038,3.186,3.215,4.621c3.308,1.603,9.55,1.82,13.799,0.87
			c-0.414-3.378,1.149-6.436,3.215-7.769c0.506-0.328,1.608-0.78,2.076-0.604c1.561,0.592,1.038,5.012,0.268,6.699
			c-0.155,0.34-0.619,0.716-0.737,1.005c1.645,1.004,4.756,0.493,5.158-1.141c0.299-1.216-0.334-3.729-0.469-4.889
			c-0.232-1.999-0.531-4.393-0.871-6.453H167.504z M164.772,248.124c0.198,2.38,0.435,5.006,0.458,7.326
			c-0.325-0.166-0.333-0.666-0.401-1.006c-0.266-1.311-0.453-3.159-0.737-4.621c-0.012-0.437-0.04-1.199-0.075-1.699H164.772z
			 M159.269,259.469c0.522,0.179,0.893,0.526,1.474,0.402c0.502-0.107,1.251-0.899,1.34-1.34c0.147-0.729-0.47-2.712-1.139-2.479
			C159.668,256.506,158.1,257.976,159.269,259.469z"/>
		<path fill="#939598" d="M172.105,248.124c0.264,3.48,0.507,7.297,0.83,10.742c0.199,2.124-0.14,4.024-0.401,5.826
			c-0.902-5.031-1.113-11.064-1.698-16.568H172.105z"/>
		<path fill="#939598" d="M133.09,248.118c0.306,3.486,0.593,7.289,0.859,10.814c0.151,2.868,0.444,6.347-0.134,8.979
			c-0.615-3.411-0.954-7.214-1.273-11.055c-0.156-1.873-0.376-3.766-0.536-5.627c-0.082-0.946-0.235-2.18-0.375-3.097
			L133.09,248.118z"/>
		<path fill="#939598" d="M115.997,261.075c-0.686,2.749-1.119,7.177,0.938,8.711c3.898,2.29,9.898,0.087,11.723-2.746
			c0.233-3.68-1.686-5.771-2.613-8.511c0.254-0.994,0.323-2.176,0.536-3.215c0.017-0.071,0.133-0.044,0.134-0.133
			c0.079-0.012,0.12,0.014,0.134,0.065c1.776,1.486,2.14,4.381,2.813,6.969c0.601,6.519-1.995,10.821-6.965,12.058
			c-0.861,0.213-1.889,0.289-2.814,0.268c-6.092-0.147-6.379-7.939-4.422-12.66C115.584,261.584,115.629,261.101,115.997,261.075z"
			/>
		<path fill="#939598" d="M123.164,260.205c-0.388,1.02-0.83,1.985-1.339,2.881c-0.931-0.61-1.791-1.291-2.88-1.741
			c0.367-0.973,0.774-1.903,1.205-2.815C121.353,258.892,122.291,259.516,123.164,260.205z"/>
		<path fill="#FFFFFF" d="M167.92,253.46c0.131,2.888,0.696,6.537-0.401,8.775c-0.493,0.646-0.975,1.301-1.608,1.808
			c-1.208,0.737-3.555,0.465-5.09,0.066c-0.559-0.144-1.032-0.447-1.474-0.401c-0.487,0.05-1.343,0.697-1.809,0.871
			c-2.063,0.767-4.851,0.737-7.503,0.737c-2.646,0-5.185-0.191-7.034-1.141c-0.799,3.086-1.991,6.284-3.884,8.374
			c-0.5,0.552-1.563,1.498-2.346,1.608c-1.419,0.2-3.014-0.155-4.555-0.334c-1.468-0.173-2.949-0.373-4.019-0.872
			c4.276,0.221,7.207-0.915,9.714-3.081c1.525-1.319,3.153-3.104,3.55-5.023c0.278-1.351-0.509-2.362-1.073-3.417
			c-0.313-0.586-0.949-1.418-1.004-2.009c-0.094-1.012,0.563-2.267,0.737-3.35c1.462,1.148,2.037,3.188,3.215,4.621
			c3.308,1.603,9.55,1.819,13.799,0.87c-0.414-3.377,1.149-6.435,3.215-7.77c0.506-0.326,1.608-0.78,2.076-0.602
			c1.561,0.59,1.039,5.01,0.268,6.698c-0.154,0.34-0.619,0.719-0.736,1.004c1.644,1.008,4.755,0.497,5.158-1.139
			c0.299-1.217-0.334-3.729-0.469-4.891c-0.532-4.574-1.409-9.702-2.344-13.598c-0.299,5.033,0.622,9.784,0.669,14.47
			c-0.326-0.167-0.333-0.665-0.402-1.004c-0.265-1.313-0.452-3.162-0.736-4.623c-0.082-2.842-0.771-7.101-0.469-10.449
			c0.056-0.608,0.412-3.802,1.273-3.616c0.595,0.126,0.898,1.883,1.072,2.88c0.212,1.215,0.409,2.254,0.603,3.348
			c0.376,2.111,0.701,4.982,1.005,6.9C167.521,250.457,167.708,252.26,167.92,253.46z M159.011,259.756
			c0.522,0.178,0.893,0.525,1.475,0.4c0.502-0.106,1.25-0.898,1.339-1.338c0.147-0.731-0.47-2.711-1.139-2.479
			C159.41,256.791,157.842,258.263,159.011,259.756z"/>
		<path fill="#FFFFFF" d="M170.868,238.722c0.056-0.012,0.063,0.025,0.066,0.067c0.774,6.457,1.104,13.564,1.742,20.363
			c0.198,2.123-0.139,4.024-0.402,5.827c-1.098-6.128-1.171-13.304-2.143-19.826C169.758,242.653,169.93,240.648,170.868,238.722z"
			/>
		<path fill="#FFFFFF" d="M132.15,241.936c0.057-0.01,0.063,0.027,0.067,0.068c0.544,5.684,1.037,11.425,1.474,17.217
			c0.151,2.865,0.444,6.346-0.134,8.977c-0.615-3.411-0.953-7.213-1.272-11.054c-0.156-1.875-0.376-3.768-0.535-5.629
			c-0.164-1.888-0.615-3.743-0.67-5.49C131.03,244.505,131.792,243.213,132.15,241.936z"/>
		<path fill="#122C9B" d="M234.035,242.139c0.987,0.466,1.944,0.959,2.68,1.674c-0.077,1.24-0.579,2.057-1.139,2.813
			c-0.988-0.397-1.761-1.007-2.68-1.473c-0.548,0.681-0.909,1.546-1.407,2.276c-0.827-0.577-1.688-1.123-2.544-1.673
			c0.419-0.897,0.752-1.884,1.272-2.681c0.898,0.44,1.83,0.848,2.545,1.474C233.306,243.863,233.61,242.941,234.035,242.139z"/>
		<path fill="#122C9B" d="M225.594,243.343c0.68,0.394,2.813,1.098,2.948,1.741c0.073,0.345-0.251,0.602-0.401,0.938
			c-0.249,0.563-0.482,1.423-0.803,1.943c-0.972-0.569-1.789-1.294-2.881-1.743C224.693,245.12,225.239,244.327,225.594,243.343z"/>
		<path fill="#FFFFFF" d="M155.059,250.174c0.947,0.503,1.893,1.009,2.679,1.675c-0.034,1.283-0.635,1.999-1.071,2.881
			c-0.692-0.263-1.188-0.612-1.876-1.006c-0.131-0.074-0.764-0.539-0.804-0.535c-0.353,0.037-0.566,0.845-0.737,1.139
			c-0.271,0.472-0.566,0.695-0.669,1.139c-0.948-0.457-1.683-1.129-2.612-1.608c0.366-0.974,0.774-1.904,1.273-2.747
			c0.901,0.463,1.769,0.956,2.612,1.475C154.309,251.835,154.671,250.991,155.059,250.174z"/>
		<path fill="#939598" d="M230.818,248.837c1.058,1.722,0.549,5.063-0.402,6.698c-0.176,0.302-0.561,0.377-0.471,0.738
			c1.284,0.383,3.78,0.502,4.622-0.336c0.074-1.614-0.721-2.36-1.271-3.351c0.287-0.984,0.614-1.932,0.871-2.946
			c1.257,1.214,1.635,3.698,1.473,5.962c-0.051,0.702-0.217,1.66-0.467,2.277c-0.347,0.848-1.255,2.034-2.347,2.143
			c-1.021,0.103-2.307,0.035-3.281-0.2c-0.701-0.171-1.44-0.607-2.145-0.537c-0.377,0.04-0.874,0.387-1.406,0.604
			c-1.437,0.587-4.597,1.183-5.962-0.066c-0.402-0.369-0.475-0.847-0.804-1.272c-0.939,0.931-1.032,2.423-2.747,2.612
			c-0.786,0.086-1.923-0.182-2.278-0.469c-0.309-0.251-0.47-0.912-0.871-0.938c-0.668-0.047-1.583,1.874-2.545,2.145
			c-1.299,0.362-3.833,0.232-4.554-0.536c-0.344-0.364-0.391-0.998-0.938-1.272c-1.005,0.848-1.836,1.676-3.216,1.875
			c-1.4,0.204-3.063-0.086-3.887-0.672c-0.834-0.59-1.493-2.364-2.343-2.343c-0.775,0.018-1.229,2.109-1.743,2.68
			c-0.518,0.574-0.894,0.592-1.876,0.734c-0.432,0.93-0.487,1.921-0.87,2.95c-0.907,2.447-2.491,5.264-4.622,6.633
			c-1.19,0.764-3.715,0.291-5.426,0c-1.38-0.237-2.732-0.229-3.885-0.737c0.867-0.218,1.674-0.014,2.48-0.069
			c2.205-0.148,4.262-1.016,5.828-2.01c1.9-1.204,3.636-3.056,4.553-5.023c0.483-1.035,0.488-2.076,0-3.148
			c-0.212-0.469-0.506-1.078-0.803-1.606c-0.281-0.501-0.776-1.052-0.87-1.541c-0.082-0.417,0.111-0.77,0.2-1.206
			c0.167-0.813,0.121-1.793,0.537-2.41c1.338,1.226,1.892,3.242,3.081,4.621c3.047,0.269,2.404-2.583,1.674-4.556
			c-0.577-1.562-1.526-3.098-0.805-5.357c0.558,0.368,0.724,1.252,1.006,1.941c0.969,2.361,2.08,5.712,4.153,7.033
			c1.686,1.074,5.329,0.497,6.766-0.601c0.367-0.283,0.664-0.709,1.006-1.073c0.261-0.28,0.705-0.846,1.273-0.469
			c-0.018,0.919-1.064,1.263-0.807,2.275c0.282,1.1,4.305,1.008,5.429,0.403c1.569-0.844,1.559-2.601,2.812-3.217
			c0.538,0.593-0.326,0.833-0.134,1.609c0.187,0.756,2.146,0.948,3.015,0.604c1.25-0.497,1.132-2.525,2.211-2.814
			c-0.51,2.732,2.935,2.723,5.09,2.211c-0.087-1.611,0.061-3.017,0.605-4.288c0.642-1.504,1.927-2.94,3.281-3.549
			C229.524,248.739,230.2,248.608,230.818,248.837z M227.201,252.855c-1.046,1.141-0.355,3.215,1.406,2.813
			c0.433-0.099,1.192-0.849,1.273-1.34c0.146-0.881-0.435-2.455-1.139-2.411C228.229,251.951,227.432,252.603,227.201,252.855z"/>
		<path fill="#FFFFFF" d="M230.285,249.726c1.057,1.723,0.549,5.065-0.403,6.699c-0.176,0.303-0.56,0.378-0.469,0.736
			c1.282,0.386,3.78,0.506,4.622-0.334c0.073-1.614-0.722-2.36-1.272-3.35c0.286-0.984,0.615-1.93,0.871-2.948
			c1.258,1.215,1.635,3.701,1.473,5.962c-0.05,0.704-0.217,1.662-0.468,2.279c-0.347,0.846-1.253,2.033-2.346,2.144
			c-1.022,0.102-2.308,0.033-3.281-0.201c-0.701-0.17-1.44-0.607-2.145-0.537c-0.375,0.04-0.874,0.387-1.407,0.604
			c-1.436,0.586-4.597,1.183-5.962-0.067c-0.401-0.368-0.474-0.848-0.803-1.273c-0.939,0.933-1.033,2.425-2.746,2.613
			c-0.787,0.087-1.923-0.181-2.277-0.469c-0.313-0.251-0.473-0.91-0.872-0.938c-0.668-0.047-1.584,1.874-2.546,2.142
			c-1.3,0.362-3.833,0.235-4.555-0.535c-0.342-0.362-0.389-0.999-0.938-1.272c-1.003,0.848-1.836,1.677-3.215,1.874
			c-1.4,0.204-3.062-0.084-3.886-0.668c-0.836-0.593-1.493-2.368-2.346-2.346c-0.774,0.021-1.228,2.11-1.743,2.682
			c-0.515,0.571-0.892,0.589-1.873,0.736c-0.434,0.926-0.489,1.918-0.873,2.946c-0.906,2.449-2.49,5.265-4.622,6.633
			c-1.188,0.763-3.714,0.291-5.425,0c-1.379-0.237-2.732-0.582-3.884-1.091c0.866-0.219,1.674-0.012,2.479-0.066
			c2.205-0.152,4.262-1.018,5.827-2.009c1.902-1.207,3.636-2.704,4.555-4.673c0.484-1.033,0.488-2.076,0-3.148
			c-0.213-0.469-0.508-1.076-0.804-1.606c-0.28-0.502-0.775-1.049-0.87-1.541c-0.081-0.417,0.111-0.769,0.201-1.207
			c0.167-0.814,0.12-1.793,0.536-2.41c1.34,1.229,1.891,3.244,3.08,4.621c3.048,0.269,2.405-2.581,1.674-4.555
			c-0.576-1.562-1.526-3.1-0.803-5.358c0.559,0.369,0.722,1.252,1.005,1.942c0.971,2.359,2.081,5.713,4.152,7.034
			c1.686,1.075,5.33,0.495,6.768-0.604c0.366-0.281,0.665-0.708,1.004-1.072c0.262-0.279,0.707-0.843,1.272-0.47
			c-0.018,0.924-1.063,1.265-0.804,2.28c0.28,1.098,4.305,1.005,5.427,0.401c1.569-0.846,1.56-2.601,2.813-3.215
			c0.536,0.588-0.327,0.829-0.134,1.608c0.187,0.755,2.144,0.946,3.015,0.601c1.249-0.495,1.132-2.522,2.209-2.813
			c-0.508,2.729,2.936,2.722,5.091,2.212c-0.086-1.612,0.062-3.019,0.604-4.289c0.644-1.503,1.928-2.94,3.28-3.548
			C228.989,249.631,229.665,249.496,230.285,249.726z M226.666,253.214c-1.044,1.137-0.354,3.213,1.408,2.813
			c0.431-0.099,1.191-0.853,1.272-1.341c0.146-0.881-0.435-2.457-1.14-2.412C227.695,252.306,226.897,252.961,226.666,253.214z"/>
		<path fill="#FFFFFF" d="M115.738,261.361c-0.685,2.748-1.119,7.177,0.938,8.711c3.898,2.292,9.897,0.086,11.722-2.747
			c0.234-3.679-1.686-5.77-2.612-8.509c0.253-0.995,0.322-2.178,0.535-3.214c0.017-0.073,0.134-0.046,0.134-0.135
			c0.078-0.012,0.119,0.015,0.133,0.067c1.775,1.485,2.14,4.381,2.813,6.968c0.601,6.518-1.996,10.819-6.965,12.056
			c-0.861,0.213-1.889,0.289-2.814,0.268c-6.092-0.145-6.379-7.938-4.421-12.659C115.325,261.868,115.37,261.39,115.738,261.361z"/>
		<path fill="#FFFFFF" d="M122.905,260.492c-0.388,1.019-0.83,1.983-1.339,2.882c-0.931-0.611-1.791-1.292-2.88-1.742
			c0.367-0.972,0.775-1.905,1.205-2.813C121.094,259.178,122.032,259.803,122.905,260.492z"/>
		<path fill="#939598" d="M195.367,269.537c-0.045,0-0.09,0-0.134,0c-0.658-0.728-1.715-1.057-2.411-1.742
			c0.413-0.882,0.707-1.882,1.272-2.612c0.916,0.444,1.818,0.904,2.612,1.475c0.436-0.796,0.732-1.724,1.272-2.414
			c0.62,0.566,2.446,0.968,2.613,1.811c0.176,0.887-0.911,2.102-1.139,2.679c-0.95-0.411-1.787-0.938-2.614-1.475
			C196.149,267.817,195.854,268.771,195.367,269.537z"/>
		<path fill="#FFFFFF" d="M195.183,269.703c-0.045,0-0.089,0-0.134,0c-0.657-0.726-1.713-1.055-2.41-1.741
			c0.411-0.881,0.708-1.881,1.272-2.612c0.916,0.445,1.819,0.903,2.612,1.474c0.436-0.793,0.733-1.725,1.273-2.412
			c0.618,0.564,2.445,0.967,2.612,1.808c0.176,0.89-0.911,2.104-1.14,2.682c-0.95-0.412-1.787-0.938-2.612-1.475
			C195.965,267.983,195.671,268.94,195.183,269.703z"/>
	</g>
	<g>
		<path fill="#122C9B" d="M163.715,248.124c-0.21-2.627-0.587-5.827-0.35-8.465c0.056-0.608,0.412-3.802,1.273-3.616
			c0.595,0.126,0.898,1.882,1.072,2.88c0.212,1.217,0.409,2.256,0.603,3.35c0.312,1.756,0.589,4.032,0.849,5.852 M165.681,248.124
			c-0.417-2.452-0.888-4.822-1.377-6.856c-0.139,2.338-0.014,4.617,0.163,6.856"/>
		<path fill="#122C9B" d="M170.514,248.124c-0.372-2.495-0.583-7.476,0.354-9.402c0.056-0.012,0.063,0.025,0.066,0.067
			c0.36,3.003,0.624,6.146,0.868,9.335"/>
		<path fill="#122C9B" d="M131.285,248.124c-0.102-0.714-0.185-1.415-0.207-2.102c-0.048-1.518,0.714-2.812,1.072-4.087
			c0.057-0.01,0.063,0.027,0.067,0.066c0.195,2.036,0.383,4.075,0.563,6.122"/>
		<path fill="#122C9B" d="M170.447,248.124"/>
	</g>
</g>
</svg>
