<?xml version="1.0" encoding="utf-8"?>
<!-- Generator: Adobe Illustrator 15.0.0, SVG Export Plug-In . SVG Version: 6.00 Build 0)  -->
<!DOCTYPE svg PUBLIC "-//W3C//DTD SVG 1.1//EN" "http://www.w3.org/Graphics/SVG/1.1/DTD/svg11.dtd">
<svg version="1.1" id="Layer_1" xmlns="http://www.w3.org/2000/svg" xmlns:xlink="http://www.w3.org/1999/xlink" x="0px" y="0px"
	 width="1800px" height="1800px" viewBox="-720 -720 1800 1800" enable-background="new -720 -720 1800 1800" xml:space="preserve">
<g>
	<g>
		<g>
			<path fill="#939598" d="M194.25-526.092c2.004,0,3.979,0,5.965,0c104.163,46.869,208.957,94.984,307.082,148.583
				c98.431,53.765,183.828,119.868,252.603,203.085C824.509-96.271,893.543,11.385,868.868,160.39
				c-21.243,128.3-93.719,208.419-173.365,282.314c0,41.299,0,102.438,0,143.718c51.363,0.845,97.309-2.838,107.002,37.652
				c4.759,19.953-7.569,73.988,6.921,87.17c12.477,11.326,36.817-0.334,53.486,3.97c0,92.457,0,184.904,0,277.361
				c68.366,2.291,141,0.334,211.008,1.011c1.039,23.821,2.904,57.021-0.974,79.238c-94.117,0-188.244,0-282.333,0
				c-2.301-92.15-0.344-188.55-0.993-282.352c-18.904-1.336-33.941-0.575-43.589-8.896c-24.963-21.53-11.085-74.136-17.811-113.922
				c-22.244-14.74-68.774-5.167-103.05-7.94c0-68.144,0-154.626,0-225.914c0-9.713-2.041-22.06,0-28.729
				c1.892-6.075,22.384-19.201,27.735-23.774c28.256-24.035,54.452-49.842,76.298-78.255c41.001-53.376,84.461-129.757,76.27-229.83
				c-2.375-29.058-12.439-56.715-22.792-80.226c-20.908-47.541-50.49-88.444-80.239-124.821
				c-62.43-76.363-136.974-136.227-224.867-186.24c-86.751-49.368-184.904-83.139-279.337-130.74
				C5.292-371.791-184.956-283.87-306.971-132.829c-56.427,69.846-125.188,167.831-96.088,298.182
				c24.652,110.48,97.531,173.596,171.37,238.725c0,78.607,0,177.065,0,255.654c-16.349,0-32.796,0-51.511,0
				c-16.335,0-40.853-2.486-47.555,6.938c-7.402,10.418-3.952,35.77-3.952,55.473c0,42.865-6.651,76.678-61.423,67.364
				c-0.659,94.108,1.322,190.851-0.988,283.316c-105.995,0-211.996,0-317.981,0c0-26.438,0-52.838,0-79.238
				c82.22,0,164.44,0,246.656,0c0.668-92.475-1.322-187.575,0.997-278.372c16.493-4.285,41.071,7.319,53.497-3.97
				c6.739-6.123,4.949-26.66,4.949-39.629c0-16.075-0.923-33.051,1.98-43.58c11.123-40.389,50.904-42.522,105.008-41.613
				c0-20.611,0-40.343,0-61.409c0-19.415,4.323-63.348,0-81.307c-2.227-9.258-20.594-21.576-27.741-28.71
				c-66.381-66.381-122.34-145.758-143.653-254.606c-28.849-147.308,44.29-259.495,106.988-334.814
				C-226.021-343.155-18.924-431.052,194.25-526.092z"/>
		</g>
	</g>
	
		<linearGradient id="SVGID_1_" gradientUnits="userSpaceOnUse" x1="-319.2295" y1="-811.3047" x2="949.7754" y2="-811.3047" gradientTransform="matrix(1 0 0 -1 -126 145)">
		<stop  offset="0" style="stop-color:#122C9B"/>
		<stop  offset="0.5" style="stop-color:#0075A1"/>
		<stop  offset="1" style="stop-color:#122C9B"/>
	</linearGradient>
	<rect x="-445.229" y="823.478" fill="url(#SVGID_1_)" width="1269.005" height="265.654"/>
	
		<linearGradient id="SVGID_2_" gradientUnits="userSpaceOnUse" x1="306.083" y1="-944.1318" x2="306.0825" y2="893.5845" gradientTransform="matrix(1 0 0 -1 -126 145)">
		<stop  offset="0" style="stop-color:#122C9B"/>
		<stop  offset="0.5" style="stop-color:#0075A1"/>
		<stop  offset="1" style="stop-color:#122C9B"/>
	</linearGradient>
	<path fill="url(#SVGID_2_)" d="M1093.549-748.584H-733.383v1756.854c0,19.889,0,39.749,0,59.628c0,7.068,0,14.155,0,21.233
		c108.157,0,216.313,0,324.475,0c2.352-94.358,0.334-193.058,1.006-289.096c55.899,9.499,62.671-25.009,62.671-68.737
		c0-20.11-3.516-45.973,4.035-56.595c6.832-9.619,31.854-7.087,48.534-7.087c19.09,0,35.88,0,52.555,0c0-80.202,0-180.684,0-260.877
		c-75.342-66.455-149.715-130.86-174.867-243.604c-29.698-132.994,40.468-232.992,98.045-304.248
		c124.506-154.135,318.641-243.855,515.52-322.444c96.362,48.571,196.509,83.037,285.042,133.412
		c89.684,51.033,165.758,112.123,229.458,190.043c30.361,37.124,60.547,78.863,81.882,127.359
		c10.566,23.998,20.835,52.23,23.256,81.882c8.33,102.1-36.001,180.016-77.855,234.504c-22.272,29.017-48.979,55.343-77.828,79.869
		c-5.455,4.656-26.373,18.042-28.293,24.258c-2.105,6.79,0,19.396,0,29.304c0,72.754,0,161.008,0,230.543
		c34.943,2.811,82.438-6.957,105.128,8.08c6.874,40.603-7.291,94.284,18.2,116.25c9.833,8.497,25.157,7.736,44.471,9.101
		c0.668,95.694-1.345,194.069,1.021,288.084c96.01,0,192.047,0,288.075,0c3.404-19.462,2.477-47.151,1.493-70.008L1093.549-748.584z
		"/>
	<g opacity="0.5">
		<path fill="#939598" d="M192.627,660.141l358.964-221.657c0,0-222.565-19.071-358.964,159.469l0,0
			C56.214,419.412-166.352,438.483-166.352,438.483L192.627,660.141L192.627,660.141z"/>
		<path fill="#939598" d="M542.277,444.226c0,0-218.011-14.462-349.65,157.836l0,0C60.978,429.764-159.668,442.594-159.668,442.594
			l352.295,219.485"/>
		<polygon fill="#939598" points="192.627,724.991 545.57,496.303 498.771,496.303 192.627,685.53 -113.519,496.303 
			-160.336,496.303 		"/>
		<polygon fill="#939598" points="192.627,729.314 540.933,500.412 498.771,500.635 192.627,689.871 -113.519,500.635 
			-155.271,500.635 		"/>
		<polygon fill="#939598" points="226.448,722.682 290.835,776.79 273.952,791.854 208.582,738.534 		"/>
		<polygon fill="#939598" points="226.448,725.965 289.926,779.322 273.952,793.553 209.519,740.993 		"/>
		<polygon fill="#939598" points="163.328,722.682 98.932,776.79 115.819,791.854 181.175,738.534 		"/>
		<polygon fill="#939598" points="163.253,725.965 99.641,779.118 115.828,793.553 180.465,740.816 		"/>
	</g>
	<g>
		<path fill="#122C9B" d="M115.239-382.955c1.123,0,2.235,0,3.354,0c-8.604,24.234-36.66,28.641-60.509,38.112
			c-46.808,18.557-97.633,39.563-141.222,54.916c5.398-15.584,17.3-19.842,32.495-26.906
			c49.976-23.209,119.182-44.09,165.874-64.999C115.239-382.208,115.239-382.574,115.239-382.955z"/>
		<path fill="#122C9B" d="M140.252,615.577c-13.733,0.093-29.749,2.412-54.92-16.809c-22.31-17.031-29.374-45.212-35.862-78.459
			c-57.592,9.332-118.036,9.091-151.301-19.044c-31.859-26.947-38.803-70.898-40.347-127.762
			c-23.321,12.671-37.537,39.785-73.969,28.014c-37.602-12.124-57.981-57.847-51.553-103.097
			c4.304-30.269,18.038-56.325,26.896-80.685c-17.662-10.084-35.77-18.062-48.186-33.636c-7.598-9.518-9.61-21.447-15.7-33.622
			c0-13.456,0-26.897,0-40.343c5.306-4.991,4.583-16.883,7.852-26.901c5.594-17.11,13.117-31.01,21.294-45.955
			c4.068-7.426,11.943-16.359,12.328-22.412c0.315-5.037-3.604-11.433-4.48-15.695c-9.392-45.477,18.678-80.722,36.989-106.469
			c5.798-8.135,16.767-18.01,17.931-25.779c0.876-5.927-2.277-13.506-2.25-19.044c0.097-16.377,4.397-41.484,12.328-51.558
			c2.704-3.418,14.787-9.587,23.539-14.568c107.364-61.089,235.228-108.18,365.356-142.331c23.079-6.072,45.63-14.044,63.876-14.583
			c56.91-1.633,36.521,54.985,20.204,82.939c-24.137,41.233-55.527,69.392-82.948,101.993c-5.432,6.452-9.388,16.869-16.823,17.931
			c15.542-44.586,46.757-72.68,76.218-105.355c8.878-9.866,24.258-21.628,22.421-38.103c-3.219-28.71-56.882-17.143-80.703-12.328
			c-23.182,4.675-42.848,10.663-60.514,16.809C29.554-277.061-65.087-246.05-148.889-202.563
			c-17.259,8.952-34.995,17.337-48.195,29.132C-135.768-128.766-66.595-81.354-2.073-36.694
			c7.639,5.288,22.133,18.706,29.132,19.053c6.851,0.362,17.161-7.871,23.543-10.079c22.736-7.875,47.805-9.786,73.964-10.092
			c-2.885-26.851-13.813-52.898-21.284-80.69c-7.268-27.008-15.57-60.096-11.21-90.782c1.335-9.434,5.524-21.41,13.446-26.897
			c11.619,22.384,22.778,45.204,33.617,68.371c-7.068,1.893-12.421-8.826-16.804-2.24c4.276,55.347,16.934,101.784,48.181,133.356
			c9.954,10.065,32.615,19.554,36.984,31.382c4.861,13.153,0.919,31.34-2.226,42.592c-27.226-26.874-86.84-48.028-132.257-26.892
			c14.8,17.597,34.308,29.276,51.553,43.715c35.167,29.41,68.766,59.048,103.115,88.542c17.291,14.828,33.32,33.641,57.16,39.22
			c-5.834-96.32-25.417-206.875-34.758-309.327c-2.421-26.572-10.547-51.228,5.621-65.008
			c18.163,27.393,35.603,55.556,42.588,94.159c-7.606,2.068-11.781-14.086-20.176-11.22c9.137,97.35,25.194,197.464,35.861,296.989
			c24.249,9.212,70.018-8.482,73.951-28.014c1.326-6.47-1.864-19.638-3.34-31.386c-4.285-33.845-6.725-66.098-11.215-96.372
			c-14.944-101-25.695-210.71-42.605-308.209c-6.104-35.259-15.186-68.079,1.131-91.9c17.115,28.474,38.312,58.831,43.72,95.263
			c-8.887-2.718-11.132-12.036-21.289-13.441c6.466,100.838,24.498,209.477,38.088,310.449
			c4.685,34.758,12.505,69.725,14.573,103.106c4.379,70.421-37.04,89.54-85.175,108.705c4.601,51.854,3.896,114.274-15.695,149.051
			c0.687-55.222-3.794-105.285-11.215-152.428c-88.645-36.854-130.49-120.536-211.811-164.733c1.995,8.381,9.74,14.16,14.573,20.181
			c16.313,20.259,34.786,43.793,38.107,76.195c3.994,39.025-10.538,58.802-31.386,72.866
			C55.12,270.018-32.017,282.243-83.886,316.343c-16.345,10.761-40.802,30.798-44.837,44.842c-5.751,20,1.405,45.417,7.853,62.772
			c21.729,58.459,105.346,79.925,173.708,51.53c3.91-11.28,8.97-23.692,14.568-38.116c3.261-8.33,15.612-30.862,14.573-38.098
			c-1.749-12.152-21.071-12.848-23.534-26.901c4.559-10.742,10.348-20.278,20.176-25.761c6.206-1.104,6.359,5.093,11.206,2.245
			c20.645-18.951,42.476-36.716,56.038-62.764c-4.87-6.215-12.314-8.701-13.464-19.063c-1.702-15.621,8.191-36.864,21.303-35.862
			c17.226,1.327,16.419,30.148,12.337,48.19c3.493,6.53,13.734,14.629,6.721,24.666c-9.628,1.029-7.328-9.861-15.69-10.093
			c-19.258,21.827-41.062,41.122-61.641,61.641c5.789,8.062,17.486,11.901,17.931,22.421c0.492,11.456-17.658,25.52-24.652,36.984
			c-11.062,18.107-15.626,35.083-15.695,53.784c48.659-18.246,93.449-41.91,132.257-71.725c8.033-6.168,33.607-23.403,34.749-33.626
			c0.862-7.802-9.249-24.953-13.451-34.749c-5.612-12.987-9.592-23.367-14.563-33.608c-14.276-29.396-44.512-67.902-17.95-98.625
			c9.685,7.485,17.365,18.209,25.779,28.014c8.339,9.685,20.417,18.608,23.553,29.146c-8.581,4.786-13.85-8.172-22.431-3.386
			c7.913,40.203,39.897,61.418,34.759,109.831c-4.954,46.354-46.057,74.971-80.699,97.521
			c-35.292,22.95-75.597,39.963-108.713,54.897c-2.746,31.326,8.274,73.431,40.352,76.214c20.176,1.771,37.258-12.431,48.186-21.28
			c39.614-32.114,64.391-74.655,99.752-108.727c33.293-32.05,84.684-54.118,133.347-75.073c9.843-4.23,43.553-14.118,45.955-24.656
			c1.178-5.111-3.979-18.07-5.584-26.901c-8.006-43.803-3.729-100.703,29.137-112.076c16.79-5.816,32.949,2.885,40.352,12.328
			c24.545,31.475,22.532,85.731,2.227,118.811c-7.94,12.959-21.122,21.159-28.024,32.495c10.771,20.38,39.211,35.992,72.856,29.137
			c16.79-3.433,46.038-17.615,49.313-30.25c2.171-8.534-1.957-25.436-3.367-39.257c-3.914-38.516-9.452-82.865-13.441-116.548
			C561.572,94,546.508-28.174,530.283-157.735c-4.146-33.251-19.304-81.785,2.227-101.993c18.145,27.064,35.51,60.867,40.37,97.503
			c-8.386-0.343-11.335-17.63-17.949-12.319c7.652,108.982,25.38,261.661,40.352,377.679c5.491,42.522,12.765,83.543,15.695,124.414
			c5.13,71.632-22.755,117.549-80.694,123.272c-52.884,5.223-62.04-27.04-82.939-53.784
			c-62.262,24.796-127.966,45.186-174.83,86.298C224.936,525.05,164.186,613.509,140.252,615.577z M-206.05-121.864
			c-10.445,13.558-35.718,42.625-39.229,68.38c-2.092,15.259,0,38.617,11.206,39.22c11.465,0.607,12.337-19.503,24.656-16.827
			c-7.268,30.853-28.877,47.346-50.435,63.895c-9.61,29.304-31.382,57.555-31.382,96.376c0,33.25,21.971,68.028,61.641,53.797
			c18.385-6.591,39.025-22.587,56.042-35.871c49.818-38.909,106.482-95.054,145.698-133.365
			C-86.209-32.501-145.369-77.937-206.05-121.864z M-226.235,217.736c-13.798,31.567-33.793,68.152-29.132,109.831
			c3.488,31.233,27.667,59.832,61.632,44.805c25.398-11.206,41.498-39.619,66.126-60.5c22.611-19.165,47.699-34.526,79.572-48.19
			c48.014-20.594,111.019-38.664,154.664-67.244c4.629-3.023,17.031-9.944,17.927-14.573c1.846-9.405-15.056-34.517-21.285-43.714
			c-19.851-29.262-38.395-46.182-62.772-67.244C30.032,61.853,12.138,46.76,2.393,42.878
			C-81.251,93.721-129.205,180.26-226.235,217.736z M157.066,267.039c1.067-8.182-2.509-11.688-5.607-15.704
			C135.234,250.129,149.111,272.216,157.066,267.039z M500.015,316.343c5.641-24.758-17.819-59.247-34.758-60.509
			c-42.652-3.2-25.668,76.771-6.707,91.891C472.742,337.957,496.054,333.644,500.015,316.343z"/>
		<path fill="#122C9B" d="M477.594-237.303c-10.815-1.141-11.372-12.532-21.289-14.559c7.523,65.699,18.831,137.326,29.137,203.98
			c8.887-2.699,10.622-12.527,15.678-19.063c-1.754-9.772-14.722-16.359-14.564-29.127c0.297-21.53,30.454-32.871,35.854-7.838
			c3.951,18.228-8.089,35.477-5.594,49.308c-2.495,2.583-4.36-0.395-7.857,0c-2.996,8.72-21.178,18.125-23.524,29.137
			c-1.188,5.64,2.718,11.753,3.349,17.917c3.989,38.381,3.971,89.929-8.97,119.929c-6.002-6.442-2.979-19.694-3.349-28.015
			c-1.41-32.124-5.019-64.836-14.564-89.669c-15.334,9.73-27.05,23.028-45.964,29.16c12.356-16.809,30.538-27.759,43.71-43.71
			c-6.104-75.412-17.115-153.04-29.137-225.279c-5.641-33.905-17.198-66.214,1.132-91.891c0.946-0.208,1.048,0.427,1.113,1.123
			C452.372-307.738,468.336-275.851,477.594-237.303z M498.883-96.071c-0.937,5.751,5.381,10.324,11.206,12.328
			C518.994-95.357,500.896-108.372,498.883-96.071z"/>
		<path fill="#122C9B" d="M155.939-285.475c1.809-0.32,1.929,1.058,3.367,1.123c-2.528,15.338-10.074,40.598,4.48,48.181
			c7.078,1.109,4.453-7.49,11.196-6.73c2.537,9.907-3.631,23.803-12.319,23.539C144.543-219.919,147.827-270.479,155.939-285.475z"
			/>
		<path fill="#122C9B" d="M275.862-217.113c-3.423-16.178,0.956-33.093,4.48-45.95c14.527-3.924,26.679,2.305,32.495,11.201
			C327.68-229.205,295.186-194.794,275.862-217.113z M308.349-236.171c-0.204-4.652-13.525-15.32-20.158-13.441
			c-8.061,2.272-4.805,9.485-6.734,21.289C288.775-218.964,308.803-226.352,308.349-236.171z"/>
		<path fill="#122C9B" d="M2.402-238.407c1.303-0.19,1.995,0.241,2.245,1.104c-0.497,18.283-14.791,49.721,2.235,63.881
			c6.447,1.229,5.311-5.139,12.337-3.354c0.2,11.902-4.759,19.587-13.455,20.171C-24.244-154.609-6.405-225.466,2.402-238.407z"/>
		<path fill="#122C9B" d="M-87.253-214.873c1.804-0.311,1.93,1.048,3.358,1.113c-2.764,21.688-15.667,50.728,2.24,65.013
			c4.601-0.037,7.773-5.691,11.21-3.362c1.095,9.438-4.555,23.316-19.067,19.044C-112.109-139.707-93.042-203.899-87.253-214.873z"
			/>
		<path fill="#122C9B" d="M396.891-202.545c0.946,17.338-6.243,47.569,10.093,54.911c7.671,1.716,5.658-11.062,11.196-7.833
			c3.524,11.757-2.06,25.426-11.196,25.765C384.173-128.868,386.278-185.18,396.891-202.545z"/>
		<path fill="#122C9B" d="M664.762-64.699c-9.666-1.916-10.621-12.555-21.299-13.446c5.288,84.6,25.761,171.292,32.486,262.246
			c3.395,45.824,7.792,102.883-13.433,131.139C658.231,195.872,639.094,84.301,624.4-26.583
			c-3.942-29.805-4.656-60.393-11.187-86.297c-1.29-5.019-4.138-8.525-4.49-13.451c-1.048-13.831,5.955-19.917,8.952-31.386
			c1.122,0,2.235,0,3.376,0C637.1-128.205,658.398-103.91,664.762-64.699z"/>
		<path fill="#122C9B" d="M66.284-127.462c-6.93-1.285-9.142-7.291-15.687-8.965c-19.647,12.11-2.157,61.358-15.69,79.577
			c-12.968-11.424-12.045-32.36-29.142-39.22c-6.457-2.583-13.182-0.102-17.936-4.49c-5.562-5.139-6.109-17.987-1.118-25.779
			c27.43-0.148,30.403,24.132,44.828,36.98c4.443-17.291,1.665-61.089,23.539-62.75C65.629-152.912,74.976-139.085,66.284-127.462z"
			/>
		<path fill="#122C9B" d="M237.737-112.889c-7.598,0.213-7.532-7.472-14.563-5.603c-12.783,3.404-2.144,52.276-5.594,65.008
			c-18.321-10.812-19.602-38.668-50.426-36.994c-4.652-4.295-10.621-12.815-5.598-20.167c20.937-1.41,31.989,16.465,44.818,26.892
			c5.408-13.437,6.029-54.637,25.778-49.322C237.171-131.706,242.236-120.324,237.737-112.889z"/>
		<path fill="#122C9B" d="M320.686-50.131c1.299-0.176,1.985,0.246,2.227,1.113c-3.85,21.113-10.056,54.211,10.102,61.655
			c5.845-0.176,4.072-13.821,8.971-11.206c11.512,12.235-0.854,41.479-17.932,28.014C307.411,16.329,309.665-33.011,320.686-50.131z
			"/>
		<path fill="#122C9B" d="M-114.154,32.804c-8-2.083-9.077-11.095-16.813-13.456c-9.699,9.694-16.294,21.131-24.657,31.382
			c-24.206,29.744-56.163,54.248-89.655,76.223c32.843-38.506,75.254-67.448,101.979-112.085
			c-4.466-7.639-11.776-9.61-14.568-17.931c-8.052-23.956,15.139-51.104,32.5-30.259c2.096,14.142-3.409,22.407-1.123,32.504
			C-123.755,11.265-105.059,18.022-114.154,32.804z M-147.781-17.631c1.637,6.582,6.535,9.898,13.456,11.21
			C-127.206-15.326-141.667-28.739-147.781-17.631z"/>
		<path fill="#122C9B" d="M520.182,10.388c1.614,15.083-13.979,54.688,5.612,66.135c7.31,0.965,3.543-9.146,11.196-7.852
			c-0.955,12.407-2.532,25.811-12.338,26.892C497.881,98.489,510.59,22.665,520.182,10.388z"/>
		<path fill="#122C9B" d="M706.227,80.994c0,4.48,0,8.984,0,13.451c-5.491,1.609-6.484,7.723-14.573,6.721
			c-22.226-12.453-12.856-62.271-4.489-82.925c2.579,20.231-10.844,56.479,8.97,66.117C698.89,82.785,701.793,77.395,706.227,80.994
			z"/>
		<path fill="#122C9B" d="M227.673,39.534c1.308-0.176,1.994,0.241,2.235,1.113c-1.392,15.394-13.015,47.054,4.489,57.165
			c5.771-0.176,6.679-10.046,12.328-6.734c-0.862,11.419-5.324,23.242-14.573,23.543C206.43,115.456,218.545,53.685,227.673,39.534z
			"/>
		<path fill="#122C9B" d="M375.61,100.039c-1.289,13.952-20.565,21.586-32.504,28.019c-10.12,5.478-19.935,10.403-29.128,14.587
			c0.177-12.342,15.232-17.811,24.639-23.548c11.883-7.235,23.654-13.646,34.749-19.058
			C374.117,100.039,374.859,100.039,375.61,100.039z"/>
		<path fill="#122C9B" d="M480.942,141.513c11.364-5.093,11.911-20.964,23.553-25.77c13.961,9.184,24.675,21.632,34.73,34.735
			c-6.855,9.202-10.788,21.313-21.289,26.91c-13.479-6.688-21.456-18.9-33.607-26.91c-8.33,6.266-12.783,16.368-20.186,23.548
			c-18.506-3.177-25.631-17.732-36.976-28.019c4.342-11.331,12.143-19.23,16.8-30.264
			C460.303,120.335,467.177,134.375,480.942,141.513z"/>
		<path fill="#122C9B" d="M-4.328,157.204c11.002-5.44,13.521-19.355,22.421-26.901c15.728,7.811,24.86,22.217,36.984,33.622
			c-6.043,10.389-10.45,22.43-21.289,28.033c-13.775-6.039-21.113-18.497-33.626-25.792c-9.759,5.186-12.713,17.175-21.298,23.548
			c-16.535-5.14-25.421-17.922-35.857-29.142c5.06-10.997,11.479-20.653,17.926-30.269C-24.953,136.735-15.417,147.76-4.328,157.204
			z"/>
		<path fill="#122C9B" d="M-77.174,207.634c-7.24-0.594-6.628-9.054-13.451-10.073c-11.011,16.242-4.249,50.277-13.446,68.366
			c-8.692-11.095-13.905-25.695-24.652-34.759c-18.789,9.472-31.72-20.788-15.682-31.382c17.556,6.735,25.366,23.191,36.98,35.872
			c6.336-4.981,3.191-17.542,4.485-28.024c1.053-8.562,3.965-23.014,10.092-25.76C-81.896,176.906-64.475,196.169-77.174,207.634z"
			/>
		<path fill="#122C9B" d="M-191.491,244.638c2.045,12.903-16.159,45.249,0,59.387c7.982,0.501,5.469-9.48,13.46-8.961
			c0.417,13.813-3.534,26.066-13.46,26.901C-220.321,324.357-203.503,255.964-191.491,244.638z"/>
		<path fill="#122C9B" d="M376.724,293.95c-4.981,0.482-5.918-3.043-8.97-4.499c-4.833,2.802-9.462,2.728-10.074,7.848
			c-2.198,17.885,31.679,8.33,40.343,6.726c-0.362,14.211-17.755,16.734-30.269,24.646c-6.884,4.379-11.179,11.596-19.045,11.215
			c1.41-7.912,8.637-10.027,11.188-16.799c-1.438-10.983-12.105-10.807-12.31-21.308
			C347.281,286.177,384.701,264.637,376.724,293.95z"/>
		<path fill="#122C9B" d="M550.44,283.857c-1.799,16.716-13.59,52.355,5.612,62.754c7.653,1.327,2.681-10.019,10.064-8.97
			c0.381,10.732-3.654,26.085-15.677,25.788C525.46,362.799,541.405,296.724,550.44,283.857z"/>
		<path fill="#122C9B" d="M76.372,292.827c-9.068,24.564-50.273,35.111-75.092,45.946c-26.59,11.595-51.785,20.797-70.602,34.73
			c1.623,8.423,13.975,15.677,7.838,24.665c-8.163,2.347-13.145-7.615-17.926-12.337c-2.755-32.022,23.311-38.023,47.068-48.19
			c32.49-13.905,78.519-31.716,106.468-45.955C75.425,291.511,76.125,291.938,76.372,292.827z"/>
		<path fill="#122C9B" d="M149.223,380.238c-2.968-19.174-0.208-41.929,8.957-52.671c15.556,3.229,30.45,9.332,33.613,22.411
			C197.813,374.69,169.654,395.646,149.223,380.238z M159.306,343.235c-5.357,4.044-5.524,17.819-3.367,25.797
			c9.601,5.204,23.079-0.343,26.901-7.848C179.092,351.12,170.479,345.888,159.306,343.235z"/>
		<path fill="#122C9B" d="M29.299,398.169c-8.13-0.825-8.418-9.518-17.936-8.988C6.971,408.93,16.382,442,4.643,458.679
			c-12.806-14.008-19.522-37.811-42.587-38.107c-3.734-4.916-3.089-18.683,1.123-22.411c20.57,2.588,25.185,21.141,36.98,32.494
			c6.888-17.384-1.665-50.23,14.573-58.282C26.317,374.051,38.343,386.175,29.299,398.169z"/>
		<path fill="#122C9B" d="M-166.839,407.13c2.314,8.358-12.296,33.979,2.25,42.578c5.455,0.111,7.797-4.61,12.324-2.245
			c0.037,10.863-4.443,18.563-12.324,19.072C-187.052,467.974-179.172,417.12-166.839,407.13z"/>
		<path fill="#122C9B" d="M468.624,459.801c1.141,0,2.245,0,3.358,0c-2.533,17.727-13.2,48.774,3.357,59.415
			c7.319-2.032,6.66-12.051,13.441-14.573c5.909,19.665-22.477,44.35-29.128,17.922
			C454.737,503.028,465.117,474.522,468.624,459.801z"/>
		<path fill="#122C9B" d="M422.679,514.717c-9.944,0.482-8.6-11.299-17.922-8.952c-14.239,3.525-0.074,62.401-14.573,69.479
			c-10.937-17.485-15.371-41.419-42.587-42.597c-7.375-4.805-11.735-24.054-3.368-31.382c26.15,3.748,31.215,28.543,44.823,44.832
			c7.301-16.141-0.037-53.199,17.94-57.16C418.05,486.507,434.088,503.307,422.679,514.717z"/>
		<path fill="#122C9B" d="M280.343,521.441c1.113,0,2.245,0,3.358,0c-1.345,18.711-13.821,48.423,3.358,59.405
			c8.599-0.724,5.825-12.866,14.582-13.441c-1.911,12.282-4.722,27.505-14.582,29.109c-25.881,4.313-13.924-56.288-7.849-71.706
			C279.814,523.9,280.39,522.991,280.343,521.441z"/>
		<path fill="#122C9B" d="M6.883,531.516c5.589,13.627-6.104,37.625,11.21,42.597c5.858,0.604,5.668-9.434,11.206-5.612
			c-1.22,10.798-4.137,21.029-12.323,22.458C-6.688,594.929-3.344,546.061,6.883,531.516z"/>
	</g>
	<g>
		<path fill="#939598" d="M-55.505,841.251c8.998,4.796,17.991,9.573,25.454,15.928c-0.334,12.17-6.043,18.951-10.176,27.364
			c-6.582-2.514-11.271-5.834-17.825-9.563c-1.243-0.705-7.25-5.13-7.629-5.093c-3.358,0.344-5.39,8.033-7.004,10.798
			c-2.579,4.489-5.38,6.642-6.363,10.844c-9.007-4.351-15.983-10.751-24.819-15.278c3.474-9.238,7.352-18.107,12.096-26.085
			c8.558,4.388,16.799,9.063,24.819,13.998C-62.634,857.049-59.192,849.024-55.505,841.251z"/>
		<path fill="#939598" d="M60.602,823.506c0.222,1.53,0.45,5.778,0.672,7.207c1.938,12.198,3.72,29.341,5.733,40.723
			c1.233,27.439,6.609,62.105-3.813,83.348c-4.684,6.132-9.262,12.375-15.278,17.18c-11.475,6.994-33.775,4.406-48.357,0.649
			c-5.311-1.382-9.81-4.258-13.998-3.821c-4.629,0.464-12.76,6.623-17.18,8.274c-19.587,7.263-46.085,6.984-71.265,6.984
			c-25.144,0-49.252-1.79-66.817-10.807c-7.583,29.304-18.914,59.665-36.896,79.535c-4.754,5.25-14.842,14.229-22.272,15.287
			c-13.493,1.874-28.641-1.503-43.274-3.2c-13.942-1.623-28.01-3.525-38.177-8.266c40.621,2.097,68.455-8.71,92.271-29.267
			c14.489-12.532,29.958-29.498,33.719-47.717c2.644-12.829-4.833-22.449-10.181-32.458c-2.982-5.565-9.021-13.469-9.55-19.091
			c-0.89-9.619,5.353-21.512,7.004-31.808c13.886,10.908,19.355,30.259,30.542,43.895c31.419,15.223,90.713,17.291,131.074,8.266
			c-3.933-32.087,10.918-61.131,30.542-73.793c4.81-3.117,15.273-7.412,19.721-5.732c14.824,5.621,9.861,47.605,2.546,63.635
			c-1.47,3.229-5.881,6.8-6.999,9.546c15.622,9.536,45.176,4.685,48.998-10.835c2.838-11.549-3.172-35.426-4.458-46.438
			c-2.208-18.988-5.042-41.725-8.27-61.297H60.602z M34.651,823.478c1.878,22.606,4.133,47.55,4.355,69.591
			c-3.089-1.577-3.159-6.326-3.813-9.555c-2.527-12.449-4.299-30.009-6.999-43.896c-0.116-4.146-0.38-11.392-0.71-16.141H34.651z
			 M-17.625,931.24c4.963,1.697,8.479,5,14.002,3.822c4.772-1.021,11.883-8.544,12.727-12.728
			c1.396-6.93-4.462-25.761-10.821-23.553C-13.831,903.096-28.733,917.057-17.625,931.24z"/>
		<path fill="#939598" d="M104.307,823.478c2.504,33.061,4.819,69.313,7.88,102.039c1.888,20.176-1.327,38.228-3.813,55.343
			c-8.571-47.792-10.57-105.101-16.131-157.382H104.307z"/>
		<path fill="#939598" d="M-266.299,823.422c2.908,33.116,5.631,69.238,8.159,102.726c1.433,27.244,4.216,60.287-1.271,85.286
			c-5.844-32.402-9.058-68.523-12.091-105.008c-1.484-17.792-3.576-35.769-5.088-53.449c-0.774-8.989-2.231-20.705-3.566-29.415
			L-266.299,823.422z"/>
		<path fill="#939598" d="M-428.667,946.5c-6.512,26.112-10.626,68.171,8.905,82.744c37.026,21.753,94.02,0.825,111.353-26.085
			c2.217-34.953-16.016-54.813-24.819-80.843c2.417-9.443,3.07-20.668,5.088-30.537c0.158-0.678,1.266-0.418,1.271-1.262
			c0.747-0.111,1.136,0.13,1.271,0.621c16.869,14.119,20.324,41.613,26.725,66.195c5.705,61.92-18.951,102.791-66.163,114.535
			c-8.182,2.021-17.94,2.745-26.734,2.541c-57.866-1.4-60.598-75.416-42.003-120.258
			C-432.586,951.333-432.159,946.741-428.667,946.5z"/>
		<path fill="#939598" d="M-360.588,938.234c-3.683,9.685-7.88,18.858-12.723,27.365c-8.84-5.798-17.008-12.264-27.355-16.54
			c3.483-9.239,7.356-18.079,11.447-26.743C-377.791,925.758-368.876,931.686-360.588,938.234z"/>
		<path fill="#FFFFFF" d="M64.549,874.163c1.243,27.43,6.614,62.096-3.813,83.356c-4.685,6.132-9.258,12.356-15.278,17.171
			c-11.47,7.004-33.771,4.415-48.353,0.631c-5.311-1.364-9.805-4.249-13.998-3.813c-4.629,0.473-12.76,6.623-17.18,8.274
			c-19.596,7.281-46.08,7.004-71.27,7.004c-25.134,0-49.248-1.818-66.813-10.835c-7.588,29.313-18.91,59.692-36.896,79.544
			c-4.749,5.241-14.847,14.229-22.281,15.278c-13.483,1.901-28.631-1.476-43.265-3.173c-13.947-1.642-28.01-3.543-38.177-8.283
			c40.621,2.096,68.455-8.692,92.271-29.268c14.489-12.532,29.953-29.489,33.719-47.717c2.644-12.829-4.833-22.439-10.19-32.458
			c-2.969-5.565-9.012-13.469-9.536-19.081c-0.891-9.61,5.343-21.53,6.999-31.817c13.891,10.909,19.35,30.277,30.538,43.896
			c31.423,15.222,90.717,17.281,131.079,8.265c-3.934-32.077,10.918-61.121,30.542-73.802c4.81-3.099,15.278-7.412,19.721-5.715
			c14.824,5.604,9.865,47.588,2.542,63.627c-1.466,3.228-5.876,6.827-6.99,9.535c15.612,9.573,45.171,4.722,48.993-10.815
			c2.838-11.559-3.177-35.427-4.458-46.456c-5.051-43.45-13.381-92.16-22.268-129.163c-2.838,47.811,5.904,92.939,6.359,137.447
			c-3.094-1.587-3.163-6.317-3.822-9.536c-2.514-12.468-4.29-30.037-6.994-43.914c-0.775-26.994-7.319-67.448-4.458-99.257
			c0.529-5.778,3.915-36.112,12.092-34.35c5.654,1.196,8.529,17.885,10.181,27.355c2.013,11.54,3.882,21.41,5.724,31.8
			c3.571,20.055,6.66,47.327,9.545,65.546C60.76,845.639,62.541,862.763,64.549,874.163z M-20.079,933.968
			c4.963,1.688,8.479,4.99,14.007,3.803c4.768-1.011,11.874-8.534,12.722-12.708c1.396-6.948-4.466-25.751-10.816-23.544
			C-16.285,905.805-31.183,919.784-20.079,933.968z"/>
		<path fill="#FFFFFF" d="M92.554,734.165c0.533-0.11,0.603,0.241,0.63,0.641c7.356,61.335,10.492,128.848,16.544,193.429
			c1.883,20.167-1.322,38.228-3.822,55.352C95.476,925.378,94.78,857.216,85.55,795.259
			C82.012,771.512,83.644,752.468,92.554,734.165z"/>
		<path fill="#FFFFFF" d="M-275.228,764.693c0.538-0.093,0.603,0.26,0.635,0.649c5.167,53.988,9.847,108.523,13.998,163.541
			c1.438,27.217,4.221,60.277-1.271,85.268c-5.839-32.401-9.049-68.515-12.087-104.998c-1.479-17.811-3.571-35.788-5.083-53.469
			c-1.554-17.931-5.839-35.556-6.368-52.151C-285.868,789.1-278.627,776.827-275.228,764.693z"/>
		<path fill="#122C9B" d="M692.572,766.623c9.378,4.425,18.469,9.109,25.454,15.899c-0.733,11.781-5.501,19.536-10.816,26.726
			c-9.388-3.775-16.726-9.564-25.454-13.989c-5.204,6.466-8.636,14.685-13.367,21.623c-7.857-5.482-16.029-10.667-24.165-15.89
			c3.979-8.525,7.144-17.895,12.087-25.464c8.535,4.184,17.385,8.052,24.175,13.998
			C685.643,783.005,688.537,774.248,692.572,766.623z"/>
		<path fill="#122C9B" d="M612.388,778.061c6.456,3.738,26.716,10.427,28.005,16.54c0.696,3.274-2.384,5.714-3.813,8.914
			c-2.365,5.353-4.582,13.516-7.625,18.46c-9.229-5.408-16.994-12.291-27.365-16.558
			C603.835,794.943,609.021,787.411,612.388,778.061z"/>
		<path fill="#FFFFFF" d="M-57.615,842.948c8.994,4.777,17.982,9.583,25.445,15.909c-0.325,12.189-6.034,18.988-10.171,27.365
			c-6.572-2.496-11.28-5.816-17.824-9.555c-1.248-0.705-7.254-5.121-7.639-5.084c-3.349,0.353-5.38,8.024-6.999,10.816
			c-2.569,4.48-5.375,6.604-6.359,10.816c-9.002-4.342-15.988-10.724-24.814-15.278c3.474-9.248,7.352-18.089,12.096-26.094
			c8.558,4.396,16.804,9.081,24.814,14.007C-64.739,858.728-61.303,850.713-57.615,842.948z"/>
		<path fill="#939598" d="M662.016,830.249c10.047,16.354,5.214,48.098-3.821,63.626c-1.67,2.867-5.325,3.581-4.472,7.014
			c12.198,3.636,35.909,4.768,43.905-3.191c0.705-15.334-6.847-22.421-12.068-31.827c2.727-9.351,5.834-18.349,8.274-27.986
			c11.938,11.53,15.528,35.129,13.988,56.632c-0.482,6.67-2.06,15.77-4.434,21.632c-3.294,8.052-11.921,19.323-22.291,20.353
			c-9.703,0.974-21.911,0.334-31.169-1.901c-6.66-1.624-13.683-5.771-20.37-5.103c-3.581,0.381-8.303,3.674-13.358,5.732
			c-13.646,5.575-43.663,11.234-56.632-0.63c-3.821-3.507-4.508-8.043-7.634-12.087c-8.924,8.84-9.806,23.014-26.095,24.813
			c-7.467,0.816-18.265-1.726-21.642-4.452c-2.931-2.385-4.462-8.664-8.274-8.905c-6.345-0.445-15.037,17.801-24.174,20.37
			c-12.338,3.441-36.409,2.208-43.255-5.093c-3.266-3.46-3.711-9.479-8.915-12.087c-9.545,8.052-17.439,15.918-30.547,17.811
			c-13.302,1.939-29.09-0.816-36.92-6.382c-7.922-5.603-14.183-22.458-22.253-22.254c-7.366,0.167-11.68,20.037-16.559,25.454
			c-4.916,5.454-8.487,5.621-17.819,6.976c-4.101,8.831-4.629,18.247-8.266,28.024c-8.617,23.246-23.664,49.999-43.904,63.004
			c-11.308,7.254-35.287,2.765-51.539,0c-13.108-2.254-25.951-2.18-36.906-7.004c8.232-2.068,15.904-0.129,23.557-0.658
			c20.945-1.41,40.481-9.647,55.36-19.091c18.052-11.438,34.536-29.025,43.246-47.717c4.592-9.833,4.639-19.722,0-29.907
			c-2.013-4.452-4.805-10.24-7.625-15.259c-2.672-4.759-7.375-9.991-8.265-14.639c-0.779-3.961,1.058-7.31,1.901-11.456
			c1.586-7.727,1.15-17.031,5.102-22.894c12.709,11.642,17.969,30.797,29.267,43.896c28.942,2.551,22.839-24.536,15.9-43.274
			c-5.482-14.833-14.499-29.424-7.645-50.89c5.297,3.497,6.874,11.893,9.555,18.441c9.202,22.43,19.759,54.257,39.452,66.808
			c16.011,10.204,50.621,4.722,64.267-5.705c3.487-2.689,6.308-6.734,9.555-10.194c2.477-2.662,6.697-8.033,12.096-4.452
			c-0.167,8.729-10.111,11.994-7.662,21.613c2.681,10.445,40.89,9.573,51.567,3.831c14.906-8.015,14.805-24.702,26.706-30.556
			c5.111,5.631-3.099,7.912-1.271,15.287c1.771,7.18,20.38,9.007,28.636,5.732c11.873-4.722,10.751-23.988,21.001-26.734
			c-4.842,25.955,27.876,25.862,48.349,21.002c-0.826-15.306,0.575-28.654,5.751-40.732c6.095-14.285,18.302-27.931,31.168-33.71
			C649.725,829.321,656.145,828.079,662.016,830.249z M627.656,868.421c-9.935,10.835-3.376,30.538,13.358,26.726
			c4.109-0.938,11.326-8.062,12.096-12.728c1.383-8.367-4.128-23.32-10.815-22.903C637.415,859.831,629.846,866.019,627.656,868.421
			z"/>
		<path fill="#FFFFFF" d="M656.951,838.69c10.037,16.363,5.213,48.116-3.831,63.636c-1.67,2.875-5.315,3.59-4.453,6.994
			c12.181,3.664,35.909,4.805,43.905-3.173c0.695-15.333-6.855-22.421-12.087-31.817c2.718-9.351,5.844-18.33,8.274-28.005
			c11.947,11.54,15.528,35.157,13.988,56.632c-0.473,6.688-2.06,15.788-4.443,21.65c-3.293,8.033-11.901,19.313-22.281,20.361
			c-9.713,0.965-21.92,0.315-31.169-1.91c-6.66-1.614-13.683-5.771-20.37-5.103c-3.563,0.381-8.303,3.674-13.367,5.742
			c-13.637,5.565-43.664,11.233-56.632-0.64c-3.813-3.498-4.499-8.052-7.625-12.097c-8.924,8.858-9.814,23.033-26.085,24.823
			c-7.477,0.826-18.266-1.716-21.633-4.452c-2.968-2.385-4.489-8.646-8.283-8.905c-6.345-0.445-15.046,17.801-24.184,20.343
			c-12.347,3.441-36.409,2.235-43.265-5.084c-3.246-3.441-3.691-9.489-8.905-12.087c-9.526,8.052-17.439,15.928-30.537,17.802
			c-13.303,1.938-29.081-0.798-36.91-6.345c-7.94-5.631-14.184-22.495-22.282-22.282c-7.355,0.195-11.66,20.046-16.558,25.473
			c-4.889,5.427-8.47,5.594-17.792,6.994c-4.119,8.794-4.647,18.219-8.293,27.987c-8.608,23.265-23.655,50.008-43.905,63.004
			c-11.279,7.245-35.277,2.765-51.529,0c-13.103-2.254-25.951-5.528-36.896-10.361c8.228-2.078,15.899-0.111,23.548-0.631
			c20.945-1.447,40.481-9.666,55.352-19.081c18.07-11.466,34.535-25.687,43.265-44.388c4.601-9.814,4.638-19.721,0-29.906
			c-2.022-4.453-4.824-10.223-7.635-15.26c-2.662-4.768-7.365-9.963-8.265-14.638c-0.771-3.961,1.058-7.301,1.911-11.466
			c1.586-7.736,1.141-17.031,5.092-22.894c12.728,11.669,17.959,30.815,29.258,43.896c28.951,2.551,22.848-24.518,15.899-43.265
			c-5.473-14.833-14.499-29.443-7.625-50.899c5.306,3.507,6.855,11.893,9.545,18.451c9.221,22.411,19.769,54.266,39.443,66.816
			c16.011,10.214,50.63,4.703,64.284-5.732c3.479-2.672,6.317-6.726,9.536-10.186c2.486-2.653,6.716-8.005,12.087-4.462
			c-0.167,8.775-10.102,12.013-7.634,21.66c2.662,10.427,40.89,9.546,51.548,3.813c14.907-8.033,14.814-24.702,26.726-30.537
			c5.092,5.584-3.108,7.875-1.271,15.277c1.771,7.171,20.361,8.989,28.636,5.705c11.864-4.703,10.752-23.96,20.983-26.716
			c-4.824,25.928,27.885,25.854,48.357,21.011c-0.816-15.314,0.584-28.673,5.742-40.741c6.112-14.276,18.311-27.931,31.158-33.7
			C644.642,837.791,651.061,836.511,656.951,838.69z M622.573,871.825c-9.916,10.798-3.358,30.52,13.376,26.716
			c4.091-0.937,11.317-8.098,12.088-12.736c1.391-8.367-4.129-23.339-10.826-22.912
			C632.351,863.198,624.771,869.423,622.573,871.825z"/>
		<path fill="#FFFFFF" d="M-431.125,949.218c-6.507,26.104-10.626,68.171,8.91,82.744c37.026,21.771,94.015,0.816,111.348-26.094
			c2.222-34.944-16.016-54.805-24.81-80.824c2.403-9.453,3.062-20.687,5.083-30.528c0.158-0.696,1.271-0.437,1.276-1.28
			c0.742-0.111,1.131,0.139,1.266,0.64c16.864,14.109,20.329,41.613,26.725,66.187c5.705,61.91-18.957,102.772-66.164,114.516
			c-8.182,2.022-17.94,2.746-26.734,2.542c-57.866-1.373-60.598-75.407-41.999-120.248
			C-435.044,954.032-434.617,949.486-431.125,949.218z"/>
		<path fill="#FFFFFF" d="M-363.042,940.962c-3.688,9.675-7.88,18.84-12.723,27.374c-8.84-5.807-17.013-12.272-27.36-16.549
			c3.483-9.229,7.361-18.098,11.447-26.725C-380.245,928.476-371.334,934.413-363.042,940.962z"/>
		<path fill="#939598" d="M325.269,1026.879c-0.427,0-0.854,0-1.271,0c-6.252-6.911-16.289-10.037-22.903-16.549
			c3.924-8.377,6.717-17.876,12.088-24.814c8.701,4.221,17.272,8.59,24.813,14.008c4.138-7.561,6.957-16.373,12.087-22.932
			c5.891,5.381,23.237,9.193,24.823,17.198c1.67,8.423-8.654,19.963-10.815,25.445c-9.026-3.905-16.976-8.905-24.833-14.008
			C332.698,1010.543,329.897,1019.606,325.269,1026.879z"/>
		<path fill="#FFFFFF" d="M323.515,1028.456c-0.427,0-0.844,0-1.271,0c-6.243-6.893-16.271-10.019-22.894-16.54
			c3.905-8.367,6.725-17.866,12.087-24.814c8.701,4.23,17.281,8.581,24.813,13.998c4.138-7.532,6.967-16.382,12.097-22.912
			c5.872,5.361,23.228,9.184,24.814,17.17c1.669,8.451-8.655,19.991-10.826,25.473c-9.025-3.914-16.976-8.914-24.813-14.007
			C330.945,1012.12,328.153,1021.211,323.515,1028.456z"/>
	</g>
	<g>
		<path fill="#122C9B" d="M24.605,823.478c-1.999-24.953-5.575-55.352-3.325-80.407c0.529-5.778,3.915-36.112,12.091-34.35
			c5.654,1.196,8.53,17.875,10.181,27.355c2.018,11.559,3.882,21.429,5.728,31.818c2.959,16.679,5.598,38.302,8.061,55.583
			 M43.278,823.478c-3.956-23.293-8.437-45.807-13.084-65.129c-1.322,22.208-0.13,43.858,1.549,65.129"/>
		<path fill="#122C9B" d="M89.187,823.478c-3.534-23.701-5.542-71.01,3.368-89.313c0.533-0.11,0.603,0.241,0.63,0.641
			c3.418,28.524,5.928,58.385,8.242,88.672"/>
		<path fill="#122C9B" d="M-283.446,823.478c-0.969-6.781-1.753-13.441-1.962-19.963c-0.459-14.415,6.781-26.706,10.181-38.821
			c0.538-0.093,0.603,0.26,0.635,0.631c1.851,19.342,3.636,38.71,5.353,58.153"/>
		<path fill="#122C9B" d="M88.551,823.478"/>
	</g>
</g>
</svg>
